<svg width="20" height="26" viewBox="0 0 20 26" fill="none" xmlns="http://www.w3.org/2000/svg">
<path d="M9.75 13C11.0356 13 12.2923 12.6188 13.3612 11.9046C14.4301 11.1903 15.2632 10.1752 15.7552 8.98744C16.2472 7.79973 16.3759 6.49279 16.1251 5.23192C15.8743 3.97104 15.2552 2.81285 14.3462 1.90381C13.4372 0.994767 12.279 0.375703 11.0181 0.124899C9.75721 -0.125905 8.45028 0.00281636 7.26256 0.494786C6.07484 0.986755 5.05968 1.81988 4.34545 2.8888C3.63122 3.95772 3.25 5.21442 3.25 6.5C3.25172 8.22338 3.93709 9.87568 5.15571 11.0943C6.37432 12.3129 8.02662 12.9983 9.75 13ZM9.75 2.16667C10.6071 2.16667 11.4449 2.42081 12.1575 2.89697C12.8701 3.37312 13.4255 4.04989 13.7535 4.84171C14.0815 5.63352 14.1673 6.50481 14.0001 7.34539C13.8329 8.18598 13.4202 8.9581 12.8141 9.56413C12.2081 10.1702 11.436 10.5829 10.5954 10.7501C9.75481 10.9173 8.88352 10.8315 8.0917 10.5035C7.29989 10.1755 6.62312 9.62009 6.14697 8.90747C5.67081 8.19486 5.41667 7.35705 5.41667 6.5C5.41667 5.35073 5.87321 4.24853 6.68587 3.43587C7.49853 2.62322 8.60073 2.16667 9.75 2.16667Z" fill="#4FB8E9"/>
<path d="M9.75 15.1667C7.16502 15.1696 4.68673 16.1978 2.85888 18.0256C1.03102 19.8535 0.00286742 22.3318 0 24.9167C0 25.2041 0.114137 25.4796 0.317301 25.6828C0.520465 25.8859 0.796015 26.0001 1.08333 26.0001C1.37065 26.0001 1.6462 25.8859 1.84937 25.6828C2.05253 25.4796 2.16667 25.2041 2.16667 24.9167C2.16667 22.9055 2.96562 20.9767 4.38777 19.5545C5.80992 18.1324 7.73877 17.3334 9.75 17.3334C11.7612 17.3334 13.6901 18.1324 15.1122 19.5545C16.5344 20.9767 17.3333 22.9055 17.3333 24.9167C17.3333 25.2041 17.4475 25.4796 17.6506 25.6828C17.8538 25.8859 18.1293 26.0001 18.4167 26.0001C18.704 26.0001 18.9795 25.8859 19.1827 25.6828C19.3859 25.4796 19.5 25.2041 19.5 24.9167C19.4971 22.3318 18.469 19.8535 16.6411 18.0256C14.8133 16.1978 12.335 15.1696 9.75 15.1667Z" fill="#4FB8E9"/>
</svg>
