<svg width="31" height="31" viewBox="0 0 31 31" fill="none" xmlns="http://www.w3.org/2000/svg">
<rect width="31" height="31" rx="6" fill="#4FB8E9"/>
<path d="M10.8337 26.0001C11.7541 26.0001 12.5003 25.2539 12.5003 24.3334C12.5003 23.4129 11.7541 22.6667 10.8337 22.6667C9.91319 22.6667 9.16699 23.4129 9.16699 24.3334C9.16699 25.2539 9.91319 26.0001 10.8337 26.0001Z" fill="#FFFDFD"/>
<path d="M19.1667 26.0001C20.0872 26.0001 20.8333 25.2539 20.8333 24.3334C20.8333 23.4129 20.0872 22.6667 19.1667 22.6667C18.2462 22.6667 17.5 23.4129 17.5 24.3334C17.5 25.2539 18.2462 26.0001 19.1667 26.0001Z" fill="#FFFDFD"/>
<path d="M24.1664 8.50001H22.4997V6.83334C22.4997 6.61232 22.4119 6.40036 22.2556 6.24408C22.0993 6.0878 21.8874 6 21.6664 6C21.4453 6 21.2334 6.0878 21.0771 6.24408C20.9208 6.40036 20.833 6.61232 20.833 6.83334V8.50001H19.1663C18.9453 8.50001 18.7334 8.58781 18.5771 8.74409C18.4208 8.90037 18.333 9.11233 18.333 9.33334C18.333 9.55436 18.4208 9.76632 18.5771 9.9226C18.7334 10.0789 18.9453 10.1667 19.1663 10.1667H20.833V11.8334C20.833 12.0544 20.9208 12.2663 21.0771 12.4226C21.2334 12.5789 21.4453 12.6667 21.6664 12.6667C21.8874 12.6667 22.0993 12.5789 22.2556 12.4226C22.4119 12.2663 22.4997 12.0544 22.4997 11.8334V10.1667H24.1664C24.3874 10.1667 24.5993 10.0789 24.7556 9.9226C24.9119 9.76632 24.9997 9.55436 24.9997 9.33334C24.9997 9.11233 24.9119 8.90037 24.7556 8.74409C24.5993 8.58781 24.3874 8.50001 24.1664 8.50001Z" fill="#FFFDFD"/>
<path d="M23.1426 14.105C23.0348 14.0849 22.9241 14.0863 22.8169 14.1092C22.7097 14.1321 22.6082 14.1761 22.5181 14.2386C22.428 14.3011 22.3513 14.3808 22.2922 14.4732C22.2332 14.5655 22.1931 14.6687 22.1742 14.7767C22.0703 15.3535 21.767 15.8754 21.3174 16.2514C20.8677 16.6273 20.3003 16.8333 19.7142 16.8334H9.51502L8.73168 10.1667H15.8334C16.0544 10.1667 16.2663 10.0789 16.4226 9.9226C16.5789 9.76632 16.6667 9.55436 16.6667 9.33335C16.6667 9.11233 16.5789 8.90037 16.4226 8.74409C16.2663 8.58781 16.0544 8.50001 15.8334 8.50001H8.53501L8.50001 8.20667C8.4282 7.59884 8.13589 7.03847 7.6785 6.63176C7.2211 6.22505 6.6304 6.00026 6.01834 6H5.83334C5.61232 6 5.40036 6.0878 5.24408 6.24408C5.0878 6.40036 5 6.61232 5 6.83334C5 7.05435 5.0878 7.26631 5.24408 7.42259C5.40036 7.57887 5.61232 7.66667 5.83334 7.66667H6.01834C6.22245 7.6667 6.41945 7.74164 6.57198 7.87727C6.72451 8.0129 6.82196 8.1998 6.84584 8.40251L7.99251 18.1525C8.11155 19.1665 8.59874 20.1015 9.36161 20.7801C10.1245 21.4586 11.1099 21.8334 12.1309 21.8334H20.8334C21.0544 21.8334 21.2664 21.7456 21.4226 21.5893C21.5789 21.433 21.6667 21.2211 21.6667 21.0001C21.6667 20.779 21.5789 20.5671 21.4226 20.4108C21.2664 20.2545 21.0544 20.1667 20.8334 20.1667H12.1309C11.6138 20.1668 11.1094 20.0066 10.6872 19.7081C10.265 19.4096 9.94571 18.9875 9.77335 18.5H19.7142C20.691 18.5001 21.6368 18.1571 22.3863 17.5307C23.1359 16.9044 23.6416 16.0346 23.8151 15.0734C23.8345 14.9656 23.8326 14.8551 23.8093 14.7481C23.786 14.6411 23.7419 14.5398 23.6795 14.4498C23.617 14.3599 23.5375 14.2832 23.4453 14.224C23.3532 14.1648 23.2503 14.1244 23.1426 14.105Z" fill="#FFFDFD"/>
</svg>
