<svg width="19" height="20" viewBox="0 0 19 20" fill="none" xmlns="http://www.w3.org/2000/svg">
<path fill-rule="evenodd" clip-rule="evenodd" d="M9.24733 19.9999C7.89233 19.9999 6.57133 19.9849 5.26433 19.9579C3.59233 19.9249 2.43533 18.8409 2.24633 17.1289C1.93133 14.2889 1.39233 7.59491 1.38733 7.52791C1.35333 7.11491 1.66133 6.75291 2.07433 6.71991C2.48133 6.70891 2.84933 6.99491 2.88233 7.40691C2.88733 7.47491 3.42533 14.1459 3.73733 16.9639C3.84433 17.9369 4.36933 18.4389 5.29533 18.4579C7.79533 18.5109 10.3463 18.5139 13.0963 18.4639C14.0803 18.4449 14.6123 17.9529 14.7223 16.9569C15.0323 14.1629 15.5723 7.47491 15.5783 7.40691C15.6113 6.99491 15.9763 6.70691 16.3853 6.71991C16.7983 6.75391 17.1063 7.11491 17.0733 7.52791C17.0673 7.59591 16.5253 14.3069 16.2133 17.1219C16.0193 18.8689 14.8653 19.9319 13.1233 19.9639C11.7903 19.9869 10.5043 19.9999 9.24733 19.9999Z" fill="#FF6868"/>
<path fill-rule="evenodd" clip-rule="evenodd" d="M17.708 4.98926H0.75C0.336 4.98926 0 4.65326 0 4.23926C0 3.82526 0.336 3.48926 0.75 3.48926H17.708C18.122 3.48926 18.458 3.82526 18.458 4.23926C18.458 4.65326 18.122 4.98926 17.708 4.98926Z" fill="#FF6868"/>
<path fill-rule="evenodd" clip-rule="evenodd" d="M14.4406 4.98924C13.3026 4.98924 12.3146 4.17824 12.0906 3.06224L11.8476 1.84624C11.7966 1.66124 11.5856 1.50024 11.3456 1.50024H7.11258C6.87258 1.50024 6.66158 1.66124 6.60058 1.89224L6.36758 3.06224C6.14458 4.17824 5.15558 4.98924 4.01758 4.98924C3.60358 4.98924 3.26758 4.65324 3.26758 4.23924C3.26758 3.82524 3.60358 3.48924 4.01758 3.48924C4.44358 3.48924 4.81358 3.18524 4.89758 2.76724L5.14058 1.55124C5.38758 0.619244 6.19458 0.000244141 7.11258 0.000244141H11.3456C12.2636 0.000244141 13.0706 0.619244 13.3076 1.50624L13.5616 2.76724C13.6446 3.18524 14.0146 3.48924 14.4406 3.48924C14.8546 3.48924 15.1906 3.82524 15.1906 4.23924C15.1906 4.65324 14.8546 4.98924 14.4406 4.98924Z" fill="#FF6868"/>
</svg>
