<svg width="22" height="22" viewBox="0 0 22 22" fill="none" xmlns="http://www.w3.org/2000/svg">
<path d="M12.375 1.375C12.375 0.614453 11.7605 0 11 0C10.2395 0 9.625 0.614453 9.625 1.375V11.8035L6.47109 8.64961C5.93398 8.1125 5.06172 8.1125 4.52461 8.64961C3.9875 9.18672 3.9875 10.059 4.52461 10.5961L10.0246 16.0961C10.5617 16.6332 11.434 16.6332 11.9711 16.0961L17.4711 10.5961C18.0082 10.059 18.0082 9.18672 17.4711 8.64961C16.934 8.1125 16.0617 8.1125 15.5246 8.64961L12.375 11.8035V1.375ZM2.75 15.125C1.2332 15.125 0 16.3582 0 17.875V19.25C0 20.7668 1.2332 22 2.75 22H19.25C20.7668 22 22 20.7668 22 19.25V17.875C22 16.3582 20.7668 15.125 19.25 15.125H14.8887L12.9422 17.0715C11.868 18.1457 10.1277 18.1457 9.05352 17.0715L7.11133 15.125H2.75ZM18.5625 19.5938C17.991 19.5938 17.5312 19.134 17.5312 18.5625C17.5312 17.991 17.991 17.5312 18.5625 17.5312C19.134 17.5312 19.5938 17.991 19.5938 18.5625C19.5938 19.134 19.134 19.5938 18.5625 19.5938Z" fill="#4FB8E9"/>
</svg>
