<svg width="32" height="28" viewBox="0 0 32 28" fill="none" xmlns="http://www.w3.org/2000/svg">
<path d="M28.8889 2.625C29.1333 2.625 29.3333 2.82188 29.3333 3.0625V7.4375C29.3333 8.16484 29.9278 8.75 30.6667 8.75C31.4056 8.75 32 8.16484 32 7.4375V3.0625C32 1.37266 30.6056 0 28.8889 0H24.4444C23.7056 0 23.1111 0.585156 23.1111 1.3125C23.1111 2.03984 23.7056 2.625 24.4444 2.625H28.8889ZM23.5556 7H22.6667C21.9278 7 21.3333 7.58516 21.3333 8.3125V19.6875C21.3333 20.4148 21.9278 21 22.6667 21H23.5556C24.2944 21 24.8889 20.4148 24.8889 19.6875V8.3125C24.8889 7.58516 24.2944 7 23.5556 7ZM14.6667 7H13.7778C13.0389 7 12.4444 7.58516 12.4444 8.3125V19.6875C12.4444 20.4148 13.0389 21 13.7778 21H14.6667C15.4056 21 16 20.4148 16 19.6875V8.3125C16 7.58516 15.4056 7 14.6667 7ZM10.6667 8.3125C10.6667 7.58516 10.0722 7 9.33333 7H8.44444C7.70555 7 7.11111 7.58516 7.11111 8.3125V19.6875C7.11111 20.4148 7.70555 21 8.44444 21H9.33333C10.0722 21 10.6667 20.4148 10.6667 19.6875V8.3125ZM18.6667 7C18.1778 7 17.7778 7.39375 17.7778 7.875V20.125C17.7778 20.6063 18.1778 21 18.6667 21C19.1556 21 19.5556 20.6063 19.5556 20.125V7.875C19.5556 7.39375 19.1556 7 18.6667 7ZM2.66667 3.0625C2.66667 2.82188 2.86667 2.625 3.11111 2.625H7.55556C8.29445 2.625 8.88889 2.03984 8.88889 1.3125C8.88889 0.585156 8.29445 0 7.55556 0H3.11111C1.39444 0 0 1.37266 0 3.0625V7.4375C0 8.16484 0.594444 8.75 1.33333 8.75C2.07222 8.75 2.66667 8.16484 2.66667 7.4375V3.0625ZM28.8889 25.375H24.4444C23.7056 25.375 23.1111 25.9602 23.1111 26.6875C23.1111 27.4148 23.7056 28 24.4444 28H28.8889C30.6056 28 32 26.6273 32 24.9375V20.5625C32 19.8352 31.4056 19.25 30.6667 19.25C29.9278 19.25 29.3333 19.8352 29.3333 20.5625V24.9375C29.3333 25.1781 29.1333 25.375 28.8889 25.375ZM2.66667 24.9375V20.5625C2.66667 19.8352 2.07222 19.25 1.33333 19.25C0.594444 19.25 0 19.8352 0 20.5625V24.9375C0 26.6273 1.39444 28 3.11111 28H7.55556C8.29445 28 8.88889 27.4148 8.88889 26.6875C8.88889 25.9602 8.29445 25.375 7.55556 25.375H3.11111C2.86667 25.375 2.66667 25.1781 2.66667 24.9375Z" fill="white"/>
</svg>
