<svg width="19" height="19" viewBox="0 0 19 19" fill="none" xmlns="http://www.w3.org/2000/svg">
<path d="M19 7.91673C19 7.85894 18.9937 7.80133 18.981 7.74494L17.9518 3.09944C17.7606 2.21771 17.2721 1.42854 16.5681 0.864235C15.8641 0.299935 14.9875 -0.00517464 14.0853 6.6412e-05H4.91467C4.013 -0.00444633 3.13716 0.300996 2.43384 0.865236C1.73053 1.42948 1.24244 2.21825 1.05133 3.09944L0.0190011 7.74494C0.00634083 7.80133 -3.13974e-05 7.85894 1.08411e-06 7.91673V8.7084C-0.000637638 9.47916 0.28098 10.2235 0.791668 10.8008V15.0417C0.792925 16.0912 1.21037 17.0973 1.95243 17.8393C2.69448 18.5814 3.70057 18.9988 4.75 19.0001H14.25C15.2994 18.9988 16.3055 18.5814 17.0476 17.8393C17.7896 17.0973 18.2071 16.0912 18.2083 15.0417V10.8008C18.719 10.2235 19.0006 9.47916 19 8.7084V7.91673ZM1.58333 8.00303L2.59667 3.44302C2.71149 2.91439 3.00439 2.44123 3.42634 2.10271C3.8483 1.7642 4.37371 1.58087 4.91467 1.5834H5.54167V3.9584C5.54167 4.16836 5.62508 4.36973 5.77354 4.51819C5.92201 4.66666 6.12337 4.75007 6.33333 4.75007C6.5433 4.75007 6.74466 4.66666 6.89313 4.51819C7.04159 4.36973 7.125 4.16836 7.125 3.9584V1.5834H11.875V3.9584C11.875 4.16836 11.9584 4.36973 12.1069 4.51819C12.2553 4.66666 12.4567 4.75007 12.6667 4.75007C12.8766 4.75007 13.078 4.66666 13.2265 4.51819C13.3749 4.36973 13.4583 4.16836 13.4583 3.9584V1.5834H14.0853C14.6263 1.58087 15.1517 1.7642 15.5737 2.10271C15.9956 2.44123 16.2885 2.91439 16.4033 3.44302L17.4167 8.00303V8.7084C17.4167 9.12833 17.2499 9.53105 16.9529 9.82799C16.656 10.1249 16.2533 10.2917 15.8333 10.2917H15.0417C14.6217 10.2917 14.219 10.1249 13.9221 9.82799C13.6252 9.53105 13.4583 9.12833 13.4583 8.7084C13.4583 8.49844 13.3749 8.29707 13.2265 8.14861C13.078 8.00014 12.8766 7.91673 12.6667 7.91673C12.4567 7.91673 12.2553 8.00014 12.1069 8.14861C11.9584 8.29707 11.875 8.49844 11.875 8.7084C11.875 9.12833 11.7082 9.53105 11.4113 9.82799C11.1143 10.1249 10.7116 10.2917 10.2917 10.2917H8.70833C8.28841 10.2917 7.88568 10.1249 7.58875 9.82799C7.29182 9.53105 7.125 9.12833 7.125 8.7084C7.125 8.49844 7.04159 8.29707 6.89313 8.14861C6.74466 8.00014 6.5433 7.91673 6.33333 7.91673C6.12337 7.91673 5.92201 8.00014 5.77354 8.14861C5.62508 8.29707 5.54167 8.49844 5.54167 8.7084C5.54167 9.12833 5.37485 9.53105 5.07792 9.82799C4.78099 10.1249 4.37826 10.2917 3.95833 10.2917H3.16667C2.74674 10.2917 2.34401 10.1249 2.04708 9.82799C1.75015 9.53105 1.58333 9.12833 1.58333 8.7084V8.00303ZM14.25 17.4167H4.75C4.12011 17.4167 3.51602 17.1665 3.07062 16.7211C2.62522 16.2757 2.375 15.6716 2.375 15.0417V11.7745C2.63356 11.8415 2.89958 11.8753 3.16667 11.8751H3.95833C4.40786 11.8753 4.85225 11.7796 5.26182 11.5943C5.67139 11.4091 6.0367 11.1385 6.33333 10.8008C6.62997 11.1385 6.99528 11.4091 7.40485 11.5943C7.81442 11.7796 8.25881 11.8753 8.70833 11.8751H10.2917C10.7412 11.8753 11.1856 11.7796 11.5951 11.5943C12.0047 11.4091 12.37 11.1385 12.6667 10.8008C12.9633 11.1385 13.3286 11.4091 13.7382 11.5943C14.1478 11.7796 14.5921 11.8753 15.0417 11.8751H15.8333C16.1004 11.8753 16.3664 11.8415 16.625 11.7745V15.0417C16.625 15.6716 16.3748 16.2757 15.9294 16.7211C15.484 17.1665 14.8799 17.4167 14.25 17.4167Z" fill="#1C1E23"/>
</svg>
