<svg width="41" height="41" viewBox="0 0 41 41" fill="none" xmlns="http://www.w3.org/2000/svg">
<path d="M41 17.0835C41.0001 16.9588 40.9863 16.8344 40.959 16.7128L38.7382 6.68827C38.3255 4.78559 37.2713 3.08263 35.7522 1.86493C34.2331 0.647228 32.3415 -0.0111663 30.3947 0.00014331H10.6053C8.65963 -0.00959471 6.76967 0.649518 5.25198 1.86709C3.73429 3.08466 2.68105 4.78675 2.26867 6.68827L0.0410023 16.7128C0.0136828 16.8344 -6.77523e-05 16.9588 2.33939e-06 17.0835V18.7918C-0.00137596 20.455 0.606326 22.0612 1.70834 23.3069V32.4585C1.71105 34.723 2.61184 36.8941 4.21313 38.4954C5.81441 40.0966 7.98544 40.9974 10.25 41.0001H30.75C33.0146 40.9974 35.1856 40.0966 36.7869 38.4954C38.3882 36.8941 39.289 34.723 39.2917 32.4585V23.3069C40.3937 22.0612 41.0014 20.455 41 18.7918V17.0835ZM3.41667 17.2697L5.60334 7.42969C5.85112 6.28895 6.48316 5.26792 7.39369 4.53744C8.30422 3.80696 9.43801 3.41135 10.6053 3.41681H11.9583V8.54181C11.9583 8.99489 12.1383 9.42941 12.4587 9.74978C12.7791 10.0702 13.2136 10.2501 13.6667 10.2501C14.1197 10.2501 14.5543 10.0702 14.8746 9.74978C15.195 9.42941 15.375 8.99489 15.375 8.54181V3.41681H25.625V8.54181C25.625 8.99489 25.805 9.42941 26.1254 9.74978C26.4457 10.0702 26.8803 10.2501 27.3333 10.2501C27.7864 10.2501 28.2209 10.0702 28.5413 9.74978C28.8617 9.42941 29.0417 8.99489 29.0417 8.54181V3.41681H30.3947C31.562 3.41135 32.6958 3.80696 33.6063 4.53744C34.5168 5.26792 35.1489 6.28895 35.3967 7.42969L37.5833 17.2697V18.7918C37.5833 19.698 37.2234 20.567 36.5826 21.2078C35.9419 21.8485 35.0728 22.2085 34.1667 22.2085H32.4583C31.5522 22.2085 30.6831 21.8485 30.0424 21.2078C29.4016 20.567 29.0417 19.698 29.0417 18.7918C29.0417 18.3387 28.8617 17.9042 28.5413 17.5838C28.2209 17.2635 27.7864 17.0835 27.3333 17.0835C26.8803 17.0835 26.4457 17.2635 26.1254 17.5838C25.805 17.9042 25.625 18.3387 25.625 18.7918C25.625 19.698 25.265 20.567 24.6243 21.2078C23.9835 21.8485 23.1145 22.2085 22.2083 22.2085H18.7917C17.8855 22.2085 17.0165 21.8485 16.3757 21.2078C15.735 20.567 15.375 19.698 15.375 18.7918C15.375 18.3387 15.195 17.9042 14.8746 17.5838C14.5543 17.2635 14.1197 17.0835 13.6667 17.0835C13.2136 17.0835 12.7791 17.2635 12.4587 17.5838C12.1383 17.9042 11.9583 18.3387 11.9583 18.7918C11.9583 19.698 11.5984 20.567 10.9576 21.2078C10.3169 21.8485 9.44783 22.2085 8.54167 22.2085H6.83334C5.92718 22.2085 5.05814 21.8485 4.41739 21.2078C3.77664 20.567 3.41667 19.698 3.41667 18.7918V17.2697ZM30.75 37.5835H10.25C8.89077 37.5835 7.5872 37.0435 6.62608 36.0824C5.66496 35.1213 5.125 33.8177 5.125 32.4585V25.4082C5.68294 25.5527 6.257 25.6256 6.83334 25.6251H8.54167C9.51169 25.6257 10.4706 25.4191 11.3544 25.0193C12.2383 24.6196 13.0266 24.0358 13.6667 23.3069C14.3068 24.0358 15.0951 24.6196 15.9789 25.0193C16.8627 25.4191 17.8217 25.6257 18.7917 25.6251H22.2083C23.1784 25.6257 24.1373 25.4191 25.0211 25.0193C25.9049 24.6196 26.6932 24.0358 27.3333 23.3069C27.9735 24.0358 28.7618 24.6196 29.6456 25.0193C30.5294 25.4191 31.4883 25.6257 32.4583 25.6251H34.1667C34.743 25.6256 35.3171 25.5527 35.875 25.4082V32.4585C35.875 33.8177 35.3351 35.1213 34.3739 36.0824C33.4128 37.0435 32.1092 37.5835 30.75 37.5835Z" fill="#4FB8E9"/>
</svg>
